HIERARCHY
ROOT Hips
{
    OFFSET 0.000000 0.000000 0.000000
    CHANNELS 6 Xposition Yposition Zposition Zrotation Xrotation Yrotation
    JOINT Spine
    {
        OFFSET -0.000000 14.517291 0.000000
        CHANNELS 3 Zrotation Xrotation Yrotation
        JOINT Spine1
        {
            OFFSET -0.000000 37.558300 0.000000
            CHANNELS 3 Zrotation Xrotation Yrotation
            JOINT Neck
            {
                OFFSET -0.000000 37.404057 3.400369
                CHANNELS 3 Zrotation Xrotation Yrotation
                JOINT Head
                {
                    OFFSET -0.000000 24.785618 -3.540803
                    CHANNELS 3 Zrotation Xrotation Yrotation
                    End Site
                    {
                        OFFSET -0.000000 35.408028 0.000000
                    }
                }
            }
            JOINT LeftShoulder
            {
                OFFSET 6.992933 33.973492 -0.192664
                CHANNELS 3 Zrotation Xrotation Yrotation
                JOINT LeftArm
                {
                    OFFSET 21.527611 0.000000 0.000000
                    CHANNELS 3 Zrotation Xrotation Yrotation
                    JOINT LeftForeArm
                    {
                        OFFSET 56.353916 0.000000 0.000000
                        CHANNELS 3 Zrotation Xrotation Yrotation
                        JOINT LeftHand
                        {
                            OFFSET 47.774071 0.000000 0.000000
                            CHANNELS 3 Zrotation Xrotation Yrotation
                            End Site
                            {
                                OFFSET 26.556021 0.000000 0.000000
                            }
                        }
                    }
                }
            }
            JOINT RightShoulder
            {
                OFFSET -7.065357 33.973492 -0.192664
                CHANNELS 3 Zrotation Xrotation Yrotation
                JOINT RightArm
                {
                    OFFSET -21.527611 0.000000 0.000000
                    CHANNELS 3 Zrotation Xrotation Yrotation
                    JOINT RightForeArm
                    {
                        OFFSET -56.353916 0.000000 0.000000
                        CHANNELS 3 Zrotation Xrotation Yrotation
                        JOINT RightHand
                        {
                            OFFSET -47.774071 0.000000 0.000000
                            CHANNELS 3 Zrotation Xrotation Yrotation
                            End Site
                            {
                                OFFSET -26.556021 0.000000 0.000000
                            }
                        }
                    }
                }
            }
        }
    }
    JOINT LeftUpLeg
    {
        OFFSET 17.704014 0.000000 0.000000
        CHANNELS 3 Zrotation Xrotation Yrotation
        JOINT LeftLeg
        {
            OFFSET -0.000000 -81.181816 0.000000
            CHANNELS 3 Zrotation Xrotation Yrotation
            JOINT LeftFoot
            {
                OFFSET -0.000000 -62.821102 0.000000
                CHANNELS 3 Zrotation Xrotation Yrotation
                JOINT LeftToeBase
                {
                    OFFSET -0.000000 -11.507608 26.556021
                    CHANNELS 3 Zrotation Xrotation Yrotation
                    End Site
                    {
                        OFFSET -0.000000 0.000000 7.081605
                    }
                }
            }
        }
    }
    JOINT RightUpLeg
    {
        OFFSET -17.704014 0.000000 0.000000
        CHANNELS 3 Zrotation Xrotation Yrotation
        JOINT RightLeg
        {
            OFFSET -0.000000 -81.181816 0.000000
            CHANNELS 3 Zrotation Xrotation Yrotation
            JOINT RightFoot
            {
                OFFSET -0.000000 -62.821102 0.000000
                CHANNELS 3 Zrotation Xrotation Yrotation
                JOINT RightToeBase
                {
                    OFFSET -0.000000 -11.507608 26.556021
                    CHANNELS 3 Zrotation Xrotation Yrotation
                    End Site
                    {
                        OFFSET -0.000000 0.000000 7.081605
                    }
                }
            }
        }
    }
}
MOTION
Frames:    5
Frame Time:    0.008333
25.993616    156.168411    -35.987949    0.857953    -0.719347    -43.738068    -0.133463    -0.984584    -0.096719    2.416146    1.424321    -0.064142    16.404514    -2.015687    15.422972    -8.864118    9.336171    12.786258    10.446693    0.935821    -19.561161    -11.082338    -18.220718    -45.136593    14.325587    -38.950069    -20.397348    -27.789467    -27.226763    -43.846073    -1.415737    4.588991    -3.025434    36.603584    6.633966    65.952713    -26.779949    -37.448433    39.207779    19.214043    -24.246969    32.709702    17.239954    -19.519495    3.999033    -11.418143    17.948872    -3.955058    -8.393247    0.744916    37.824463    0.000000    0.000000    0.000000    -15.427572    1.375590    -6.946556    6.842787    27.896679    -2.646276    5.230868    -21.450071    -17.212748    0.000000    0.000000    0.000000    
26.006168    156.169449    -35.986965    0.866019    -0.729198    -43.758213    -0.139073    -0.984282    -0.096756    2.418929    1.434839    -0.064392    16.411060    -2.015669    15.431650    -8.889425    9.311251    12.790752    10.440926    0.907512    -19.559515    -11.088649    -18.208586    -45.119316    14.318787    -38.948895    -20.404215    -27.788080    -27.224150    -43.854317    -1.396118    4.595840    -3.054123    36.616444    6.664994    65.883698    -26.763090    -37.479546    39.178921    19.209873    -24.281250    32.801979    17.225761    -19.513672    4.002792    -11.411648    17.952799    -3.944434    -8.399404    0.739231    37.818890    0.000000    0.000000    0.000000    -15.444507    1.367268    -6.938578    6.838393    27.898367    -2.616373    5.232959    -21.456978    -17.222998    0.000000    0.000000    0.000000    
26.013195    156.170135    -35.989807    0.867952    -0.728491    -43.780506    -0.142438    -0.992525    -0.097944    2.433729    1.443573    -0.065883    16.393795    -2.025691    15.435163    -8.867610    9.318826    12.797777    10.437717    0.918696    -19.555233    -11.087423    -18.225845    -45.110802    14.313499    -38.948456    -20.405653    -27.773279    -27.234848    -43.835445    -1.380556    4.621017    -3.067893    36.611591    6.689569    65.828667    -26.803110    -37.467999    39.125092    19.193010    -24.272787    32.798050    17.233368    -19.509937    4.015333    -11.418919    17.954868    -3.963071    -8.403724    0.729420    37.849503    0.000000    0.000000    0.000000    -15.447523    1.358433    -6.914621    6.837908    27.894003    -2.612269    5.219910    -21.452602    -17.211748    0.000000    0.000000    0.000000    
26.023567    156.170898    -35.986759    0.871392    -0.728408    -43.799911    -0.131641    -1.001732    -0.101290    2.424508    1.458491    -0.067822    16.406675    -2.012849    15.433698    -8.889639    9.285879    12.792020    10.450836    0.916480    -19.538988    -11.098761    -18.224155    -45.114063    14.329206    -38.952965    -20.397320    -27.786318    -27.233356    -43.835712    -1.351400    4.639049    -3.085709    36.592571    6.717197    65.779205    -26.852215    -37.431427    39.094280    19.177483    -24.231245    32.765221    17.232817    -19.510876    4.030128    -11.415954    17.962601    -3.962367    -8.389723    0.735935    37.845909    0.000000    0.000000    0.000000    -15.456632    1.351819    -6.891586    6.850445    27.880299    -2.624969    5.222093    -21.453224    -17.211386    0.000000    0.000000    0.000000    
26.035938    156.172836    -35.991013    0.875616    -0.729669    -43.818691    -0.129816    -1.001199    -0.105598    2.426765    1.461192    -0.068241    16.412788    -2.003257    15.443336    -8.902579    9.268541    12.800334    10.446028    0.912137    -19.539671    -11.081918    -18.210058    -45.090679    14.342243    -38.968601    -20.394226    -27.771080    -27.256933    -43.829514    -1.330511    4.655232    -3.099164    36.603340    6.717181    65.729057    -26.854044    -37.366032    39.099815    19.229349    -24.136391    32.785671    17.232361    -19.510988    4.026829    -11.423923    17.958582    -3.938232    -8.401737    0.735018    37.859261    0.000000    0.000000    0.000000    -15.465683    1.366944    -6.888899    6.850516    27.836432    -2.375618    5.114740    -21.484819    -17.443607    0.000000    0.000000    0.000000    
